<mxfile host="app.diagrams.net" modified="2020-08-10T05:43:24.042Z" agent="5.0 (Macintosh; Intel Mac OS X 10_15_3) AppleWebKit/537.36 (KHTML, like Gecko) Chrome/84.0.4147.105 Safari/537.36" etag="2vlxtHWHQfDFj5PKo97N" version="13.6.2" type="github">
  <diagram id="C5RBs43oDa-KdzZeNtuy" name="Page-1">
    <mxGraphModel dx="946" dy="523" grid="1" gridSize="10" guides="1" tooltips="1" connect="1" arrows="1" fold="1" page="1" pageScale="1" pageWidth="827" pageHeight="1169" background="#ffffff" math="0" shadow="0">
      <root>
        <mxCell id="WIyWlLk6GJQsqaUBKTNV-0" />
        <mxCell id="WIyWlLk6GJQsqaUBKTNV-1" parent="WIyWlLk6GJQsqaUBKTNV-0" />
        <mxCell id="WIyWlLk6GJQsqaUBKTNV-7" value="&lt;font color=&quot;#f19c99&quot;&gt;&lt;span class=&quot;token punctuation&quot; style=&quot;box-sizing: border-box ; outline: 0px ; margin: 0px ; padding: 0px ; font-family: &amp;#34;source code pro&amp;#34; , &amp;#34;dejavu sans mono&amp;#34; , &amp;#34;ubuntu mono&amp;#34; , &amp;#34;anonymous pro&amp;#34; , &amp;#34;droid sans mono&amp;#34; , &amp;#34;menlo&amp;#34; , &amp;#34;monaco&amp;#34; , &amp;#34;consolas&amp;#34; , &amp;#34;inconsolata&amp;#34; , &amp;#34;courier&amp;#34; , monospace , &amp;#34;pingfang sc&amp;#34; , &amp;#34;microsoft yahei&amp;#34; , sans-serif ; font-size: 14px ; overflow-wrap: break-word ; font-stretch: normal ; line-height: normal&quot;&gt;cameralManager.&lt;/span&gt;&lt;span class=&quot;token function&quot; style=&quot;box-sizing: border-box ; outline: 0px ; margin: 0px ; padding: 0px ; font-family: &amp;#34;source code pro&amp;#34; , &amp;#34;dejavu sans mono&amp;#34; , &amp;#34;ubuntu mono&amp;#34; , &amp;#34;anonymous pro&amp;#34; , &amp;#34;droid sans mono&amp;#34; , &amp;#34;menlo&amp;#34; , &amp;#34;monaco&amp;#34; , &amp;#34;consolas&amp;#34; , &amp;#34;inconsolata&amp;#34; , &amp;#34;courier&amp;#34; , monospace , &amp;#34;pingfang sc&amp;#34; , &amp;#34;microsoft yahei&amp;#34; , sans-serif ; font-size: 14px ; overflow-wrap: break-word ; font-stretch: normal ; line-height: normal&quot;&gt;openDriver&lt;/span&gt;&lt;/font&gt;" style="rounded=1;whiteSpace=wrap;html=1;fontSize=12;glass=0;strokeWidth=1;shadow=0;" parent="WIyWlLk6GJQsqaUBKTNV-1" vertex="1">
          <mxGeometry x="50" y="97" width="220" height="43" as="geometry" />
        </mxCell>
        <mxCell id="TI4Sm9KQDW-ezL8yFI-L-0" value="" style="rounded=0;html=1;jettySize=auto;orthogonalLoop=1;fontSize=11;endArrow=classic;endFill=1;endSize=8;strokeWidth=1;shadow=0;labelBackgroundColor=none;edgeStyle=orthogonalEdgeStyle;" edge="1" parent="WIyWlLk6GJQsqaUBKTNV-1">
          <mxGeometry relative="1" as="geometry">
            <mxPoint x="162" y="144" as="sourcePoint" />
            <mxPoint x="162" y="330" as="targetPoint" />
          </mxGeometry>
        </mxCell>
        <mxCell id="TI4Sm9KQDW-ezL8yFI-L-29" style="edgeStyle=orthogonalEdgeStyle;rounded=0;orthogonalLoop=1;jettySize=auto;html=1;exitX=0.5;exitY=1;exitDx=0;exitDy=0;entryX=0.548;entryY=-0.08;entryDx=0;entryDy=0;entryPerimeter=0;endArrow=classic;endFill=1;" edge="1" parent="WIyWlLk6GJQsqaUBKTNV-1">
          <mxGeometry relative="1" as="geometry">
            <mxPoint x="417" y="70" as="sourcePoint" />
            <mxPoint x="413.9280000000001" y="88" as="targetPoint" />
          </mxGeometry>
        </mxCell>
        <mxCell id="TI4Sm9KQDW-ezL8yFI-L-2" value="&lt;span style=&quot;background-color: rgb(249 , 242 , 244)&quot;&gt;&lt;font color=&quot;#c7254e&quot; face=&quot;source code pro, dejavu sans mono, ubuntu mono, anonymous pro, droid sans mono, menlo, monaco, consolas, inconsolata, courier, monospace, pingfang sc, microsoft yahei, sans-serif&quot;&gt;&lt;span style=&quot;font-size: 14px&quot;&gt;打开摄像头OpenCameraInterface.open()&lt;/span&gt;&lt;/font&gt;&lt;/span&gt;&lt;span style=&quot;color: rgba(0 , 0 , 0 , 0) ; font-family: monospace ; font-size: 0px&quot;&gt;%3CmxGraphModel%3E%3Croot%3E%3CmxCell%20id%3D%220%22%2F%3E%3CmxCell%20id%3D%221%22%20parent%3D%220%22%2F%3E%3CmxCell%20id%3D%222%22%20value%3D%22%26lt%3Bspan%20style%3D%26quot%3Bcolor%3A%20rgb(199%20%2C%2037%20%2C%2078)%20%3B%20font-family%3A%20%26amp%3B%2334%3Bsource%20code%20pro%26amp%3B%2334%3B%20%2C%20%26amp%3B%2334%3Bdejavu%20sans%20mono%26amp%3B%2334%3B%20%2C%20%26amp%3B%2334%3Bubuntu%20mono%26amp%3B%2334%3B%20%2C%20%26amp%3B%2334%3Banonymous%20pro%26amp%3B%2334%3B%20%2C%20%26amp%3B%2334%3Bdroid%20sans%20mono%26amp%3B%2334%3B%20%2C%20%26amp%3B%2334%3Bmenlo%26amp%3B%2334%3B%20%2C%20%26amp%3B%2334%3Bmonaco%26amp%3B%2334%3B%20%2C%20%26amp%3B%2334%3Bconsolas%26amp%3B%2334%3B%20%2C%20%26amp%3B%2334%3Binconsolata%26amp%3B%2334%3B%20%2C%20%26amp%3B%2334%3Bcourier%26amp%3B%2334%3B%20%2C%20monospace%20%2C%20%26amp%3B%2334%3Bpingfang%20sc%26amp%3B%2334%3B%20%2C%20%26amp%3B%2334%3Bmicrosoft%20yahei%26amp%3B%2334%3B%20%2C%20sans-serif%20%3B%20font-size%3A%2014px%20%3B%20background-color%3A%20rgb(249%20%2C%20242%20%2C%20244)%26quot%3B%26gt%3BinitCamera%26lt%3B%2Fspan%26gt%3B%22%20style%3D%22rounded%3D1%3BwhiteSpace%3Dwrap%3Bhtml%3D1%3BfontSize%3D12%3Bglass%3D0%3BstrokeWidth%3D1%3Bshadow%3D0%3B%22%20vertex%3D%221%22%20parent%3D%221%22%3E%3CmxGeometry%20x%3D%22160%22%20y%3D%2280%22%20width%3D%22120%22%20height%3D%2240%22%20as%3D%22geometry%22%2F%3E%3C%2FmxCell%3E%3C%2Froot%3E%3C%2FmxGraphModel%3&lt;/span&gt;&lt;span style=&quot;color: rgb(199 , 37 , 78) ; font-family: &amp;#34;source code pro&amp;#34; , &amp;#34;dejavu sans mono&amp;#34; , &amp;#34;ubuntu mono&amp;#34; , &amp;#34;anonymous pro&amp;#34; , &amp;#34;droid sans mono&amp;#34; , &amp;#34;menlo&amp;#34; , &amp;#34;monaco&amp;#34; , &amp;#34;consolas&amp;#34; , &amp;#34;inconsolata&amp;#34; , &amp;#34;courier&amp;#34; , monospace , &amp;#34;pingfang sc&amp;#34; , &amp;#34;microsoft yahei&amp;#34; , sans-serif ; font-size: 14px ; background-color: rgb(249 , 242 , 244)&quot;&gt;&lt;br&gt;&lt;/span&gt;" style="rounded=1;whiteSpace=wrap;html=1;fontSize=12;glass=0;strokeWidth=1;shadow=0;" vertex="1" parent="WIyWlLk6GJQsqaUBKTNV-1">
          <mxGeometry x="310" y="25" width="230" height="45" as="geometry" />
        </mxCell>
        <mxCell id="TI4Sm9KQDW-ezL8yFI-L-30" style="edgeStyle=orthogonalEdgeStyle;rounded=0;orthogonalLoop=1;jettySize=auto;html=1;exitX=0.5;exitY=1;exitDx=0;exitDy=0;entryX=0.438;entryY=0;entryDx=0;entryDy=0;entryPerimeter=0;endArrow=classic;endFill=1;" edge="1" parent="WIyWlLk6GJQsqaUBKTNV-1" source="TI4Sm9KQDW-ezL8yFI-L-3" target="TI4Sm9KQDW-ezL8yFI-L-4">
          <mxGeometry relative="1" as="geometry" />
        </mxCell>
        <mxCell id="TI4Sm9KQDW-ezL8yFI-L-3" value="&lt;span style=&quot;color: rgb(199 , 37 , 78) ; font-family: &amp;#34;source code pro&amp;#34; , &amp;#34;dejavu sans mono&amp;#34; , &amp;#34;ubuntu mono&amp;#34; , &amp;#34;anonymous pro&amp;#34; , &amp;#34;droid sans mono&amp;#34; , &amp;#34;menlo&amp;#34; , &amp;#34;monaco&amp;#34; , &amp;#34;consolas&amp;#34; , &amp;#34;inconsolata&amp;#34; , &amp;#34;courier&amp;#34; , monospace , &amp;#34;pingfang sc&amp;#34; , &amp;#34;microsoft yahei&amp;#34; , sans-serif ; font-size: 14px ; background-color: rgb(249 , 242 , 244)&quot;&gt;设置预览角度（竖屏）&lt;br&gt;&lt;/span&gt;" style="rounded=1;whiteSpace=wrap;html=1;fontSize=12;glass=0;strokeWidth=1;shadow=0;" vertex="1" parent="WIyWlLk6GJQsqaUBKTNV-1">
          <mxGeometry x="320" y="90" width="186" height="25" as="geometry" />
        </mxCell>
        <mxCell id="TI4Sm9KQDW-ezL8yFI-L-4" value="&lt;span style=&quot;background-color: rgb(249 , 242 , 244)&quot;&gt;&lt;font color=&quot;#c7254e&quot; face=&quot;source code pro, dejavu sans mono, ubuntu mono, anonymous pro, droid sans mono, menlo, monaco, consolas, inconsolata, courier, monospace, pingfang sc, microsoft yahei, sans-serif&quot;&gt;&lt;span style=&quot;font-size: 14px&quot;&gt;初始化相机参数initFromCameraParameters&lt;/span&gt;&lt;/font&gt;&lt;br&gt;&lt;/span&gt;" style="rounded=1;whiteSpace=wrap;html=1;fontSize=12;glass=0;strokeWidth=1;shadow=0;" vertex="1" parent="WIyWlLk6GJQsqaUBKTNV-1">
          <mxGeometry x="310" y="140" width="240" height="50" as="geometry" />
        </mxCell>
        <mxCell id="TI4Sm9KQDW-ezL8yFI-L-35" style="edgeStyle=orthogonalEdgeStyle;rounded=0;orthogonalLoop=1;jettySize=auto;html=1;exitX=0.5;exitY=1;exitDx=0;exitDy=0;entryX=0.5;entryY=0;entryDx=0;entryDy=0;endArrow=classic;endFill=1;" edge="1" parent="WIyWlLk6GJQsqaUBKTNV-1" source="TI4Sm9KQDW-ezL8yFI-L-7" target="TI4Sm9KQDW-ezL8yFI-L-10">
          <mxGeometry relative="1" as="geometry" />
        </mxCell>
        <mxCell id="TI4Sm9KQDW-ezL8yFI-L-7" value="&lt;span style=&quot;background-color: rgb(249 , 242 , 244)&quot;&gt;&lt;font color=&quot;#c7254e&quot; face=&quot;source code pro, dejavu sans mono, ubuntu mono, anonymous pro, droid sans mono, menlo, monaco, consolas, inconsolata, courier, monospace, pingfang sc, microsoft yahei, sans-serif&quot;&gt;&lt;span style=&quot;font-size: 14px&quot;&gt;实例化解码线程&lt;br&gt;&lt;/span&gt;&lt;span style=&quot;font-size: 14px&quot;&gt;DecodeThread&lt;/span&gt;&lt;/font&gt;&lt;br&gt;&lt;/span&gt;" style="rounded=1;whiteSpace=wrap;html=1;fontSize=12;glass=0;strokeWidth=1;shadow=0;" vertex="1" parent="WIyWlLk6GJQsqaUBKTNV-1">
          <mxGeometry x="320" y="230" width="189" height="40" as="geometry" />
        </mxCell>
        <mxCell id="TI4Sm9KQDW-ezL8yFI-L-36" style="edgeStyle=orthogonalEdgeStyle;rounded=0;orthogonalLoop=1;jettySize=auto;html=1;exitX=0.5;exitY=1;exitDx=0;exitDy=0;endArrow=classic;endFill=1;" edge="1" parent="WIyWlLk6GJQsqaUBKTNV-1" source="TI4Sm9KQDW-ezL8yFI-L-10">
          <mxGeometry relative="1" as="geometry">
            <mxPoint x="415" y="370" as="targetPoint" />
          </mxGeometry>
        </mxCell>
        <mxCell id="TI4Sm9KQDW-ezL8yFI-L-10" value="&lt;span style=&quot;background-color: rgb(249 , 242 , 244)&quot;&gt;&lt;font color=&quot;#c7254e&quot; face=&quot;source code pro, dejavu sans mono, ubuntu mono, anonymous pro, droid sans mono, menlo, monaco, consolas, inconsolata, courier, monospace, pingfang sc, microsoft yahei, sans-serif&quot;&gt;&lt;span style=&quot;font-size: 14px&quot;&gt;预览图像并解析&lt;br&gt;&lt;/span&gt;&lt;/font&gt;&lt;/span&gt;&lt;font color=&quot;#c7254e&quot; face=&quot;source code pro, dejavu sans mono, ubuntu mono, anonymous pro, droid sans mono, menlo, monaco, consolas, inconsolata, courier, monospace, pingfang sc, microsoft yahei, sans-serif&quot;&gt;&lt;span style=&quot;font-size: 14px&quot;&gt;requestPreviewFrame&lt;/span&gt;&lt;/font&gt;" style="rounded=1;whiteSpace=wrap;html=1;fontSize=12;glass=0;strokeWidth=1;shadow=0;" vertex="1" parent="WIyWlLk6GJQsqaUBKTNV-1">
          <mxGeometry x="320" y="300" width="190" height="40" as="geometry" />
        </mxCell>
        <mxCell id="TI4Sm9KQDW-ezL8yFI-L-12" value="设置解码格式、解析的字符集&lt;br&gt;" style="strokeWidth=2;html=1;shape=mxgraph.flowchart.document2;whiteSpace=wrap;size=0.25;" vertex="1" parent="WIyWlLk6GJQsqaUBKTNV-1">
          <mxGeometry x="540" y="221" width="100" height="50" as="geometry" />
        </mxCell>
        <mxCell id="TI4Sm9KQDW-ezL8yFI-L-38" style="edgeStyle=orthogonalEdgeStyle;rounded=0;orthogonalLoop=1;jettySize=auto;html=1;exitX=0.5;exitY=1;exitDx=0;exitDy=0;entryX=0.5;entryY=0;entryDx=0;entryDy=0;endArrow=classic;endFill=1;" edge="1" parent="WIyWlLk6GJQsqaUBKTNV-1" source="TI4Sm9KQDW-ezL8yFI-L-14" target="TI4Sm9KQDW-ezL8yFI-L-26">
          <mxGeometry relative="1" as="geometry" />
        </mxCell>
        <mxCell id="TI4Sm9KQDW-ezL8yFI-L-14" value="&lt;span style=&quot;background-color: rgb(249 , 242 , 244)&quot;&gt;&lt;font color=&quot;#c7254e&quot; face=&quot;source code pro, dejavu sans mono, ubuntu mono, anonymous pro, droid sans mono, menlo, monaco, consolas, inconsolata, courier, monospace, pingfang sc, microsoft yahei, sans-serif&quot;&gt;&lt;span style=&quot;font-size: 14px&quot;&gt;获取预览帧图像数据，&lt;/span&gt;&lt;br&gt;&lt;/font&gt;&lt;/span&gt;&lt;font color=&quot;#c7254e&quot; face=&quot;source code pro, dejavu sans mono, ubuntu mono, anonymous pro, droid sans mono, menlo, monaco, consolas, inconsolata, courier, monospace, pingfang sc, microsoft yahei, sans-serif&quot;&gt;&lt;span style=&quot;font-size: 14px&quot;&gt;发送给&lt;/span&gt;&lt;/font&gt;&lt;span style=&quot;color: rgb(199 , 37 , 78) ; font-family: &amp;#34;source code pro&amp;#34; , &amp;#34;dejavu sans mono&amp;#34; , &amp;#34;ubuntu mono&amp;#34; , &amp;#34;anonymous pro&amp;#34; , &amp;#34;droid sans mono&amp;#34; , &amp;#34;menlo&amp;#34; , &amp;#34;monaco&amp;#34; , &amp;#34;consolas&amp;#34; , &amp;#34;inconsolata&amp;#34; , &amp;#34;courier&amp;#34; , monospace , &amp;#34;pingfang sc&amp;#34; , &amp;#34;microsoft yahei&amp;#34; , sans-serif ; font-size: 14px ; background-color: rgb(249 , 242 , 244)&quot;&gt;DecodeHandler&lt;/span&gt;" style="rounded=1;whiteSpace=wrap;html=1;fontSize=12;glass=0;strokeWidth=1;shadow=0;" vertex="1" parent="WIyWlLk6GJQsqaUBKTNV-1">
          <mxGeometry x="320" y="374" width="190" height="36" as="geometry" />
        </mxCell>
        <mxCell id="TI4Sm9KQDW-ezL8yFI-L-39" style="edgeStyle=orthogonalEdgeStyle;rounded=0;orthogonalLoop=1;jettySize=auto;html=1;exitX=0.5;exitY=1;exitDx=0;exitDy=0;entryX=0.5;entryY=0;entryDx=0;entryDy=0;endArrow=classic;endFill=1;" edge="1" parent="WIyWlLk6GJQsqaUBKTNV-1" source="TI4Sm9KQDW-ezL8yFI-L-15" target="TI4Sm9KQDW-ezL8yFI-L-18">
          <mxGeometry relative="1" as="geometry" />
        </mxCell>
        <mxCell id="TI4Sm9KQDW-ezL8yFI-L-15" value="&lt;font color=&quot;#c7254e&quot; face=&quot;source code pro, dejavu sans mono, ubuntu mono, anonymous pro, droid sans mono, menlo, monaco, consolas, inconsolata, courier, monospace, pingfang sc, microsoft yahei, sans-serif&quot;&gt;&lt;span style=&quot;background-color: rgb(249 , 242 , 244)&quot;&gt;&lt;span style=&quot;font-size: 14px&quot;&gt;获取聚焦框里的图像数据&lt;/span&gt;&lt;br&gt;&lt;/span&gt;&lt;/font&gt;" style="rounded=1;whiteSpace=wrap;html=1;fontSize=12;glass=0;strokeWidth=1;shadow=0;" vertex="1" parent="WIyWlLk6GJQsqaUBKTNV-1">
          <mxGeometry x="561" y="400" width="190" height="40" as="geometry" />
        </mxCell>
        <mxCell id="TI4Sm9KQDW-ezL8yFI-L-17" value="&lt;font color=&quot;#c7254e&quot; face=&quot;source code pro, dejavu sans mono, ubuntu mono, anonymous pro, droid sans mono, menlo, monaco, consolas, inconsolata, courier, monospace, pingfang sc, microsoft yahei, sans-serif&quot;&gt;&lt;span style=&quot;font-size: 14px ; background-color: rgb(249 , 242 , 244)&quot;&gt;结果发送给主线程，此时获取到字符串数据&lt;/span&gt;&lt;/font&gt;" style="rounded=1;whiteSpace=wrap;html=1;fontSize=12;glass=0;strokeWidth=1;shadow=0;" vertex="1" parent="WIyWlLk6GJQsqaUBKTNV-1">
          <mxGeometry x="560" y="520" width="190" height="40" as="geometry" />
        </mxCell>
        <mxCell id="TI4Sm9KQDW-ezL8yFI-L-40" style="edgeStyle=orthogonalEdgeStyle;rounded=0;orthogonalLoop=1;jettySize=auto;html=1;exitX=0.5;exitY=1;exitDx=0;exitDy=0;entryX=0.5;entryY=0;entryDx=0;entryDy=0;endArrow=classic;endFill=1;" edge="1" parent="WIyWlLk6GJQsqaUBKTNV-1" source="TI4Sm9KQDW-ezL8yFI-L-18" target="TI4Sm9KQDW-ezL8yFI-L-17">
          <mxGeometry relative="1" as="geometry" />
        </mxCell>
        <mxCell id="TI4Sm9KQDW-ezL8yFI-L-18" value="&lt;font color=&quot;#c7254e&quot; face=&quot;source code pro, dejavu sans mono, ubuntu mono, anonymous pro, droid sans mono, menlo, monaco, consolas, inconsolata, courier, monospace, pingfang sc, microsoft yahei, sans-serif&quot;&gt;&lt;span style=&quot;background-color: rgb(249 , 242 , 244)&quot;&gt;&lt;span style=&quot;font-size: 14px&quot;&gt;子线程解码（解码类型、二值化算法）&lt;/span&gt;&lt;br&gt;&lt;/span&gt;&lt;/font&gt;" style="rounded=1;whiteSpace=wrap;html=1;fontSize=12;glass=0;strokeWidth=1;shadow=0;" vertex="1" parent="WIyWlLk6GJQsqaUBKTNV-1">
          <mxGeometry x="561" y="460" width="190" height="40" as="geometry" />
        </mxCell>
        <mxCell id="TI4Sm9KQDW-ezL8yFI-L-22" value="&lt;font style=&quot;font-size: 18px&quot;&gt;扫码流程分析&lt;/font&gt;" style="text;html=1;strokeColor=none;fillColor=none;align=center;verticalAlign=middle;whiteSpace=wrap;rounded=0;opacity=20;" vertex="1" parent="WIyWlLk6GJQsqaUBKTNV-1">
          <mxGeometry x="40" y="20" width="150" height="30" as="geometry" />
        </mxCell>
        <mxCell id="WIyWlLk6GJQsqaUBKTNV-11" value="&lt;font color=&quot;#f19c99&quot;&gt;&lt;span class=&quot;token keyword&quot; style=&quot;box-sizing: border-box ; outline: 0px ; margin: 0px ; padding: 0px ; font-family: &amp;#34;source code pro&amp;#34; , &amp;#34;dejavu sans mono&amp;#34; , &amp;#34;ubuntu mono&amp;#34; , &amp;#34;anonymous pro&amp;#34; , &amp;#34;droid sans mono&amp;#34; , &amp;#34;menlo&amp;#34; , &amp;#34;monaco&amp;#34; , &amp;#34;consolas&amp;#34; , &amp;#34;inconsolata&amp;#34; , &amp;#34;courier&amp;#34; , monospace , &amp;#34;pingfang sc&amp;#34; , &amp;#34;microsoft yahei&amp;#34; , sans-serif ; font-size: 14px ; overflow-wrap: break-word ; font-stretch: normal ; line-height: normal&quot;&gt;实例化&lt;br&gt;&lt;/span&gt;&lt;span class=&quot;token class-name&quot; style=&quot;box-sizing: border-box ; outline: 0px ; margin: 0px ; padding: 0px ; font-family: &amp;#34;source code pro&amp;#34; , &amp;#34;dejavu sans mono&amp;#34; , &amp;#34;ubuntu mono&amp;#34; , &amp;#34;anonymous pro&amp;#34; , &amp;#34;droid sans mono&amp;#34; , &amp;#34;menlo&amp;#34; , &amp;#34;monaco&amp;#34; , &amp;#34;consolas&amp;#34; , &amp;#34;inconsolata&amp;#34; , &amp;#34;courier&amp;#34; , monospace , &amp;#34;pingfang sc&amp;#34; , &amp;#34;microsoft yahei&amp;#34; , sans-serif ; font-size: 14px ; overflow-wrap: break-word ; font-stretch: normal ; line-height: normal&quot;&gt;CaptureActivityHandler&lt;/span&gt;&lt;/font&gt;" style="rounded=1;whiteSpace=wrap;html=1;fontSize=12;glass=0;strokeWidth=1;shadow=0;" parent="WIyWlLk6GJQsqaUBKTNV-1" vertex="1">
          <mxGeometry x="40" y="340" width="240" height="40" as="geometry" />
        </mxCell>
        <mxCell id="TI4Sm9KQDW-ezL8yFI-L-24" value="" style="shape=curlyBracket;whiteSpace=wrap;html=1;rounded=1;labelBackgroundColor=#ffffff;strokeWidth=2;fillColor=#000000;align=left;" vertex="1" parent="WIyWlLk6GJQsqaUBKTNV-1">
          <mxGeometry x="280" y="60" width="20" height="120" as="geometry" />
        </mxCell>
        <mxCell id="TI4Sm9KQDW-ezL8yFI-L-25" value="" style="shape=curlyBracket;whiteSpace=wrap;html=1;rounded=1;labelBackgroundColor=#ffffff;strokeWidth=2;fillColor=#000000;align=left;" vertex="1" parent="WIyWlLk6GJQsqaUBKTNV-1">
          <mxGeometry x="290" y="249" width="20" height="211" as="geometry" />
        </mxCell>
        <mxCell id="TI4Sm9KQDW-ezL8yFI-L-26" value="&lt;span style=&quot;color: rgb(199 , 37 , 78) ; font-family: &amp;#34;source code pro&amp;#34; , &amp;#34;dejavu sans mono&amp;#34; , &amp;#34;ubuntu mono&amp;#34; , &amp;#34;anonymous pro&amp;#34; , &amp;#34;droid sans mono&amp;#34; , &amp;#34;menlo&amp;#34; , &amp;#34;monaco&amp;#34; , &amp;#34;consolas&amp;#34; , &amp;#34;inconsolata&amp;#34; , &amp;#34;courier&amp;#34; , monospace , &amp;#34;pingfang sc&amp;#34; , &amp;#34;microsoft yahei&amp;#34; , sans-serif ; font-size: 14px ; background-color: rgb(249 , 242 , 244)&quot;&gt;DecodeHandler解码&lt;/span&gt;" style="rounded=1;whiteSpace=wrap;html=1;fontSize=12;glass=0;strokeWidth=1;shadow=0;" vertex="1" parent="WIyWlLk6GJQsqaUBKTNV-1">
          <mxGeometry x="318" y="440" width="190" height="40" as="geometry" />
        </mxCell>
        <mxCell id="TI4Sm9KQDW-ezL8yFI-L-32" value="&lt;span style=&quot;background-color: rgb(248 , 249 , 250)&quot;&gt;打开相机并初始化&lt;/span&gt;" style="text;html=1;strokeColor=none;fillColor=none;align=center;verticalAlign=middle;whiteSpace=wrap;rounded=0;labelBackgroundColor=#ffffff;" vertex="1" parent="WIyWlLk6GJQsqaUBKTNV-1">
          <mxGeometry x="160" y="65" width="100" height="25" as="geometry" />
        </mxCell>
        <mxCell id="TI4Sm9KQDW-ezL8yFI-L-33" value="&lt;span style=&quot;background-color: rgb(248 , 249 , 250)&quot;&gt;获取一帧图像&lt;/span&gt;" style="text;html=1;strokeColor=none;fillColor=none;align=center;verticalAlign=middle;whiteSpace=wrap;rounded=0;labelBackgroundColor=#ffffff;" vertex="1" parent="WIyWlLk6GJQsqaUBKTNV-1">
          <mxGeometry x="177" y="309.5" width="100" height="21" as="geometry" />
        </mxCell>
        <mxCell id="TI4Sm9KQDW-ezL8yFI-L-34" value="" style="shape=curlyBracket;whiteSpace=wrap;html=1;rounded=1;labelBackgroundColor=#ffffff;strokeWidth=2;fillColor=#000000;align=left;" vertex="1" parent="WIyWlLk6GJQsqaUBKTNV-1">
          <mxGeometry x="530" y="410" width="20" height="120" as="geometry" />
        </mxCell>
      </root>
    </mxGraphModel>
  </diagram>
</mxfile>
